<svg xmlns="http://www.w3.org/2000/svg" viewBox="0 0 40 40"><path fill="#e30613" d="M40 19.5A20 20 0 1 0 9.6 37.1v.1h.2a20 20 0 0 0 20.4 0h.2v-.1A20.13 20.13 0 0 0 40 20.5v-1zm-7.6 0a3 3 0 0 0-.4-1l5.5-6.2a19 19 0 0 1 1.6 7.2zm-31.45 0a19.88 19.88 0 0 1 1.5-7l5.6 6a1.78 1.78 0 0 0-.4 1zm9.2-1.1A1.6 1.6 0 1 1 8.5 20a1.58 1.58 0 0 1 1.6-1.6zm17.4 1.1h-7v-7.3a3 3 0 0 0 1-.4l6.4 6.7a2.11 2.11 0 0 0-.45 1zm-7.5-8.1a1.6 1.6 0 1 1 1.6-1.6A1.58 1.58 0 0 1 20 11.4zm-1.4.4a3 3 0 0 0 1 .4v7.3h-7a3 3 0 0 0-.4-1zm-8.1 10.7a2.57 2.57 0 0 0 2-2h7v18.6a19.21 19.21 0 0 1-9-2.5zm10-2h7a2.57 2.57 0 0 0 2 2v14.1a18.71 18.71 0 0 1-9 2.5zm9.4 1.1a1.6 1.6 0 1 1 1.6-1.6 1.58 1.58 0 0 1-1.6 1.6zM20 .9a19.13 19.13 0 0 1 17.1 10.6l-5.7 6.4a2.3 2.3 0 0 0-1.4-.4 3.26 3.26 0 0 0-1.4.4l-6.4-6.7a2.39 2.39 0 0 0 .5-1.4 2.5 2.5 0 0 0-5 0 2.39 2.39 0 0 0 .5 1.4l-6.4 6.7a2.3 2.3 0 0 0-1.4-.4 3.26 3.26 0 0 0-1.4.4l-5.8-6.3A18.33 18.33 0 0 1 20 .9zM.95 20.5h6.6a2.57 2.57 0 0 0 2 2V36a19.29 19.29 0 0 1-8.6-15.5zM30.4 36V22.5a2.57 2.57 0 0 0 2-2H39A18.79 18.79 0 0 1 30.4 36z"/></svg>