<svg xmlns="http://www.w3.org/2000/svg" viewBox="0 0 40 40"><g fill="#e30613"><path d="M20-.02a20 20 0 1 0 20 20 20.06 20.06 0 0 0-20-20zm0 .9a19.13 19.13 0 0 1 19.1 18.6H28.89c.6-.5 1.2-1.1 1.7-1.6 2.1-2.3 2.9-4.1 2.2-5.3-1-1.8-4.5-1.4-8.6.1-.7-4.2-2.2-7.5-4.2-7.5s-3.5 3.2-4.2 7.5c-.2-.1-.5-.2-.7-.3l-.3.9.9.3c-.2 1.2-.3 2.4-.4 3.6l-3 2.1c-3.3-2.8-4.9-5.3-4.3-6.3.3-.5 1.1-.8 2.3-.7v-.9c-1.6 0-2.6.3-3.1 1.2-1 1.7.9 4.3 3.8 6.9H.89A19.13 19.13 0 0 1 20 .9zm-7.7 19.7a22.76 22.76 0 0 0 3 2.1c.1 1.2.2 2.5.4 3.6-4.1 1.5-7 1.6-7.7.6s1-3.58 4.3-6.28zm15.4-1.2q-1.35-1.05-3-2.1c-.1-1.2-.2-2.5-.4-3.6a19.57 19.57 0 0 1 5.6-1.3c1 0 1.8.2 2 .7.5.8-.3 2.4-2 4.2a14.88 14.88 0 0 1-2.2 2.12zm-.7.6c-.7.5-1.4 1.1-2.2 1.6v-3.2c.8.52 1.5 1.12 2.2 1.6zm-3.2-3.3a6.38 6.38 0 0 0-1.4-.8c-.5-.3-.9-.5-1.4-.8.9-.4 1.7-.8 2.5-1.1q.15 1.22.3 2.72zm-3.8-2.2a31.12 31.12 0 0 0-3.3-1.5c.7-4.3 2.1-6.9 3.3-6.9s2.6 2.6 3.3 6.9zm-1 .6c-.5.3-.9.5-1.4.8s-.9.5-1.4.8q.15-1.5.3-2.7A27.18 27.18 0 0 1 19 15.1zm-1 1.5c.7-.4 1.3-.7 1.9-1.1a19.83 19.83 0 0 1 2 1.1c.7.4 1.3.8 1.9 1.2 0 .7.1 1.5.1 2.2a15.48 15.48 0 0 1-.1 2.2c-.6.4-1.2.8-1.9 1.2s-1.3.7-2 1.1c-.6-.3-1.3-.7-2-1.1s-1.3-.8-1.9-1.2c0-.7-.1-1.5-.1-2.2a15.48 15.48 0 0 1 .1-2.2 17.59 17.59 0 0 0 2-1.18zm-2.8 5c-.8-.5-1.5-1.1-2.2-1.6.7-.5 1.4-1.1 2.2-1.6v3.2zm1 1.7a10 10 0 0 0 1.4.8c.5.3.9.5 1.4.8-.9.4-1.7.8-2.5 1.1q-.15-1.18-.3-2.68zm3.8 2.1a24.08 24.08 0 0 0 3.3 1.5c-.7 4.3-2.1 6.9-3.3 6.9s-2.6-2.6-3.3-6.9A24.08 24.08 0 0 0 20 25.4zm1-.5c.5-.3.9-.5 1.4-.8s.9-.5 1.4-.8q-.15 1.5-.3 2.7A17.4 17.4 0 0 1 21 24.9zm3.7-2.2q1.65-1 3-2.1a24 24 0 0 1 2.3 2.1c1.7 1.9 2.5 3.4 2 4.2-.6 1.1-3.6.9-7.7-.6a19.82 19.82 0 0 0 .4-3.58zM20 39.08A19.13 19.13 0 0 1 .89 20.5h10.1c-3 2.6-4.8 5.3-3.8 6.9a3.11 3.11 0 0 0 2.8 1.2 18.09 18.09 0 0 0 5.8-1.3c.7 4.2 2.2 7.5 4.2 7.5s3.5-3.2 4.2-7.5a18.09 18.09 0 0 0 5.8 1.3 3 3 0 0 0 2.8-1.2c.7-1.2 0-3-2.2-5.3-.5-.5-1.1-1.1-1.7-1.6h10.1A19 19 0 0 1 20 39.1z"/><path d="M12.7 14.3a2.2 2.2 0 1 0-2.2-2.2 2.22 2.22 0 0 0 2.2 2.2zm0-3.4a1.3 1.3 0 1 1-1.3 1.3 1.26 1.26 0 0 1 1.3-1.3zM20 22.2a2.2 2.2 0 1 0-2.2-2.2 2.22 2.22 0 0 0 2.2 2.2zm0-3.5a1.3 1.3 0 1 1-1.3 1.3 1.32 1.32 0 0 1 1.3-1.3z"/></g></svg>