<svg xmlns="http://www.w3.org/2000/svg" viewBox="0 0 40 40"><g fill="#e30613"><path d="M20-.02a20 20 0 1 0 20 20 20.06 20.06 0 0 0-20-20zm0 .9a19.13 19.13 0 0 1 19.1 18.6H26c.2-.4.4-.8.7-1.3a7.46 7.46 0 0 0 1-3.8 7.7 7.7 0 0 0-15.4 0 7.46 7.46 0 0 0 1 3.8c.3.5.5.9.7 1.3H.9A19.13 19.13 0 0 1 20 .9zm1.85 25.32h-3.6a9.37 9.37 0 0 0 1.8-1.7 14.06 14.06 0 0 0 1.8 1.7zm-2.9-5.7c0-1.1.4-1.6 1.1-1.6s1.1.6 1.1 1.6a5.32 5.32 0 0 1-1.1 2.5 5.77 5.77 0 0 1-1.15-2.5zm4.1 5.3a6.68 6.68 0 0 1-2.4-2.1 6.65 6.65 0 0 0 1.4-3.2c0-2.3-1.5-2.5-2-2.5s-2 .2-2 2.5a6.28 6.28 0 0 0 1.4 3.2 6.68 6.68 0 0 1-2.4 2.1 3.87 3.87 0 0 1-.3-1.1 19.36 19.36 0 0 0-2.6-6.9 6.92 6.92 0 0 1-.9-3.4 6.8 6.8 0 0 1 13.6 0 6.92 6.92 0 0 1-.9 3.4 19.36 19.36 0 0 0-2.6 6.9 3.87 3.87 0 0 1-.35 1.1zm-3 13.3A19.13 19.13 0 0 1 .95 20.5h13.5a17.56 17.56 0 0 1 1.4 4.4c.2 1.5.6 2.2 2.1 2.2h4.1c1.5 0 1.9-.7 2.1-2.2a15.4 15.4 0 0 1 1.4-4.4h13.5A19 19 0 0 1 20 39.1z"/><path d="M16.7 28.2h6.7v.9h-6.7zM16.7 30.3h6.7v.9h-6.7zM16.7 32.4h6.7v.9h-6.7z"/></g></svg>