<svg xmlns="http://www.w3.org/2000/svg" viewBox="0 0 40 40"><path fill="#e30613" d="M20 0a20 20 0 1 0 20 20A20.06 20.06 0 0 0 20 0zm0 .9a19.12 19.12 0 0 1 19.09 18.6h-7.9a8.75 8.75 0 0 0-.2-1.6v-.3h-2.6a13.36 13.36 0 0 0-.7-1.8l1.9-1.9-.2-.3a11.42 11.42 0 0 0-2.9-2.9l-.3-.2-1.91 1.9a6.64 6.64 0 0 0-1.79-.7V9h-.5a14.15 14.15 0 0 0-4.12 0h-.29v2.6a12.86 12.86 0 0 0-1.8.7l-1.91-1.9-.3.2a11.42 11.42 0 0 0-2.9 2.9l-.2.3 1.9 1.9a6.7 6.7 0 0 0-.7 1.8H9v.5c-.11.5-.11 1.1-.21 1.6H.87A19.16 19.16 0 0 1 20 .9zm8.29 25.3a10.15 10.15 0 0 1-2.09 2.1l-1.8-1.8-.4.2a8.7 8.7 0 0 1-2.21.9l-.29.1v2.6a15 15 0 0 1-3 0v-2.6l-.3-.1a8.49 8.49 0 0 1-2.2-.9l-.3-.2-1.83 1.8a10.45 10.45 0 0 1-2.1-2.1l1.8-1.8-.31-.4a8.49 8.49 0 0 1-.9-2.2l-.1-.3H9.69a7.57 7.57 0 0 1-.1-1.5 7.57 7.57 0 0 1 .1-1.5h2.6l.1-.3a8.85 8.85 0 0 1 .9-2.2l.21-.3-1.8-1.8a10.45 10.45 0 0 1 2.1-2.1l1.8 1.8.29-.2a8.55 8.55 0 0 1 2.21-.9l.29-.1V9.8a15 15 0 0 1 3 0v2.6l.3.1a8.35 8.35 0 0 1 2.2.9l.3.2 1.8-1.8a10.45 10.45 0 0 1 2.1 2.1l-1.8 1.8.2.3a8.49 8.49 0 0 1 .9 2.2l.1.3h2.6a7.57 7.57 0 0 1 .1 1.5 7.57 7.57 0 0 1-.1 1.5h-2.6l-.1.3a8.49 8.49 0 0 1-.9 2.2l-.2.3zM20 39.1A19.14 19.14 0 0 1 .87 20.5h7.9a8 8 0 0 0 .21 1.6l.1.4h2.6a13.36 13.36 0 0 0 .7 1.8l-1.9 1.9.2.3a11.42 11.42 0 0 0 2.9 2.9l.3.2 1.9-1.9a6.7 6.7 0 0 0 1.8.7V31h.4a14.87 14.87 0 0 0 2 .2 12.43 12.43 0 0 0 2-.2l.4-.1v-2.6a13.36 13.36 0 0 0 1.8-.7l1.9 1.9.3-.2a11.42 11.42 0 0 0 2.9-2.9l.2-.3-1.9-1.9a6.7 6.7 0 0 0 .7-1.8h2.7V22c.09-.5.09-1.1.2-1.6h7.9A19.15 19.15 0 0 1 20 39.1z"/><path fill="#e30613" d="M20 15.7a4.3 4.3 0 1 0 4.29 4.3A4.27 4.27 0 0 0 20 15.7zm0 7.7a3.4 3.4 0 1 1 3.4-3.4 3.37 3.37 0 0 1-3.4 3.4z"/></svg>