<svg xmlns="http://www.w3.org/2000/svg" viewBox="0 0 40 40"><path fill="#e30613" d="M20 0a20 20 0 1 0 20 20A20.06 20.06 0 0 0 20 0zm0 .9a19.13 19.13 0 0 1 19.1 18.6h-7.7v-2h-3.1v-.9h3.1v-4.9h-3.1V8.6h-4.9v3.1h-.9V8.6h-4.9v3.1h-.9V8.6h-4.85v3.1H8.7v4.9h3.15v.9H8.7v2H1A19 19 0 0 1 20 .94zm7.3 21.5v4.9H12.6V12.6h14.7v9.8zm.9 1.8h2.2v3.1h-2.2zm-4 4h3.1v2.2h-3.1zm-5.7 0h3.1v2.2h-3.1zm-6.7-.9H9.6v-3.1h2.25zm.9.9h3.15v2.2h-3.1zm-.9-6.7H9.6v-3.1h2.25zm0-5.7H9.6v-3.1h2.25zm4-4h-3.1V9.6h3.15zm5.7 0h-3.1V9.6h3.1zm6.7.9h2.2v3.1h-2.2zm-.9-.9h-3.1V9.6h3.1zm.9 6.7h2.2v3.1h-2.2zM20 39.1A19.13 19.13 0 0 1 .9 20.5h7.7v2h3.1v.9H8.6v4.9h3.1v3.1h4.9v-3.1h.9v3.1h4.9v-3.1h.9v3.1h4.9v-3.1h3.1v-4.9h-3.1v-.9h3.1v-2H39a19 19 0 0 1-19 18.6z"/><path fill="#e30613" d="M15.2 24.8h9.5v-9.5h-9.5zm1.65-.86 7.1-7.1v7.1zm6.4-7.8-7.1 7.1v-7.1z"/></svg>